<!--?xml version="1.0" encoding="utf-8"?-->
<!-- Generator: Adobe Illustrator 19.1.1, SVG Export Plug-In . SVG Version: 6.00 Build 0)  -->
<svg version="1.1" id="_x31_0" xmlns="http://www.w3.org/2000/svg" xmlns:xlink="http://www.w3.org/1999/xlink" x="0px" y="0px" viewBox="0 0 512 512" style="width: 256px; height: 256px; opacity: 1;" xml:space="preserve">
<style type="text/css">
	.st0{fill:#374149;}
</style>
<g>
	<path class="st0" d="M351.963,0H160.037c-25.024,0-45.41,20.39-45.41,45.414v396.804c0,30.274,24.578,54.906,54.851,54.906h5.528
		v10.336c0,2.508,2.035,4.539,4.538,4.539h15.13c2.507,0,4.538-2.031,4.538-4.539v-10.336h113.574v10.336
		c0,2.508,2.031,4.539,4.539,4.539h15.129c2.504,0,4.535-2.031,4.535-4.539v-10.336h5.531c30.274,0,54.852-24.633,54.852-54.906
		V45.414C397.373,20.39,376.986,0,351.963,0z M148.139,262.527h215.222h0.496v179.691c0,11.786-9.55,21.391-21.336,21.391H169.478
		c-11.785,0-21.339-9.606-21.339-21.391V262.527z M363.857,251.355H148.139V45.414c0-6.594,5.308-11.898,11.898-11.898h191.926
		c6.59,0,11.894,5.304,11.894,11.898V251.355z"></path>
	<path class="st0" d="M179.81,440.766h56.973c6.481,0,9.778-7.82,5.195-12.402l-60.156-60.156
		c-4.582-4.578-12.402-1.34-12.402,5.141v57.086C169.42,436.129,174.056,440.766,179.81,440.766z"></path>
	<rect x="184.224" y="98.531" class="st0" width="143.551" height="31.45"></rect>
	<polygon class="st0" points="184.384,160.422 184.384,160.422 184.224,160.422 184.224,191.867 327.776,191.867 327.776,160.422 
		184.822,160.422 	"></polygon>
	<path class="st0" d="M255.998,366.758c18.488,0,33.515-15.027,33.515-33.515c0-18.489-15.027-33.516-33.515-33.516
		s-33.512,15.027-33.512,33.516C222.486,351.73,237.51,366.758,255.998,366.758z M255.998,316.484
		c9.218,0,16.758,7.539,16.758,16.758c0,9.274-7.539,16.758-16.758,16.758c-9.215,0-16.754-7.484-16.754-16.758
		C239.244,324.023,246.783,316.484,255.998,316.484z"></path>
</g>
</svg>
