<!--?xml version="1.0" encoding="utf-8"?-->
<!-- Generator: Adobe Illustrator 19.1.1, SVG Export Plug-In . SVG Version: 6.00 Build 0)  -->
<svg version="1.1" id="_x31_0" xmlns="http://www.w3.org/2000/svg" xmlns:xlink="http://www.w3.org/1999/xlink" x="0px" y="0px" viewBox="0 0 512 512" style="width: 256px; height: 256px; opacity: 1;" xml:space="preserve">
<style type="text/css">
	.st0{fill:#374149;}
</style>
<g>
	<path class="st0" d="M269.183,243.32c0-2.781-0.839-4.984-2.57-6.714c-1.73-1.68-4.09-2.516-7.133-2.516h-12.325v18.406h12.325
		c3.042,0,5.402-0.84,7.133-2.519C268.344,248.351,269.183,246.098,269.183,243.32z" style="fill: rgb(75, 75, 75);"></path>
	<path class="st0" d="M371.344,89.156H140.66c-28.961,0-52.442,23.481-52.442,52.438v228.809c0,28.965,23.481,52.438,52.442,52.438
		h230.684c28.961,0,52.438-23.473,52.438-52.438V141.594C423.782,112.637,400.305,89.156,371.344,89.156z M218.45,244.582h-18.466
		l-0.414-1.676c-0.633-2.512-1.746-4.598-3.309-6.199c-1.445-1.461-3.535-2.172-6.386-2.172c-1.602,0-3.027,0.27-4.226,0.801
		c-1.192,0.531-2.192,1.254-2.973,2.137c-0.535,0.582-0.95,1.214-1.301,1.961c-0.344,0.73-0.633,1.762-0.871,3.043
		c-0.254,1.382-0.438,3.129-0.558,5.246c-0.137,2.192-0.195,4.95-0.195,8.274c0,3.328,0.058,6.09,0.195,8.274
		c0.121,2.121,0.305,3.875,0.558,5.258c0.238,1.278,0.527,2.305,0.879,3.047c0.343,0.734,0.758,1.367,1.269,1.93
		c0.813,0.922,1.786,1.613,3,2.156c1.196,0.531,2.622,0.805,4.223,0.805c2.863,0,4.969-0.718,6.449-2.191
		c1.59-1.598,2.715-3.672,3.34-6.18l0.414-1.676h15.843l2.539,0.028l-0.457,2.57c-1.41,7.922-4.711,14.011-9.793,18.09
		c-5.055,4.05-11.223,6.102-18.336,6.102c-4.394,0-8.293-0.707-11.602-2.118c-3.282-1.386-6.293-3.39-8.934-5.961
		c-1.992-1.992-3.52-4.062-4.566-6.176c-1.047-2.078-1.817-4.402-2.286-6.886c-0.445-2.367-0.722-4.93-0.828-7.832
		c-0.098-2.746-0.152-5.824-0.152-9.238c0-3.406,0.054-6.484,0.152-9.226c0.106-2.867,0.387-5.508,0.836-7.844
		c0.461-2.473,1.23-4.797,2.282-6.89c1.042-2.102,2.57-4.168,4.535-6.141c2.679-2.598,5.687-4.606,8.961-5.992
		c3.301-1.402,7.207-2.114,11.602-2.114c7.113,0,13.281,2.055,18.336,6.102c5.082,4.082,8.382,10.172,9.793,18.094l0.418,2.34
		L218.45,244.582z M122.106,202.844c-0.031,0.007-0.066,0.011-0.098,0.019c-4.118,0.902-8.691-2.043-8.691-6.977V146.93
		c0-16.586,13.566-30.152,30.152-30.152h39.211c6.105,0,9.386,7.175,5.394,11.793l-62.234,71.984
		C124.774,201.789,123.465,202.523,122.106,202.844z M249.414,266.394L249.414,266.394h-0.157v25.375H231.95v-71.527h28.16
		c3.726,0,7.133,0.629,10.175,1.785c3.039,1.207,5.61,2.938,7.707,5.035c2.047,2.094,3.672,4.614,4.774,7.39
		c1.102,2.832,1.68,5.77,1.68,8.867c0,3.094-0.578,6.078-1.68,8.86c-1.102,2.832-2.726,5.297-4.774,7.394
		c-2.098,2.148-4.668,3.828-7.707,5.031c-3.042,1.211-6.449,1.789-10.175,1.789h-10.629H249.414z M315.238,273.82
		c1.691,1.762,3.98,2.618,6.996,2.618c3.031,0,5.336-0.859,7.054-2.629c1.734-1.782,2.574-4.29,2.574-7.664v-45.871h17.246v46.347
		c0,3.875-0.715,7.442-2.126,10.594c-1.398,3.136-3.343,5.867-5.785,8.109c-2.434,2.226-5.301,3.969-8.527,5.192
		c-3.215,1.218-6.722,1.835-10.438,1.835c-3.703,0-7.211-0.617-10.426-1.835c-3.242-1.227-6.11-2.973-8.527-5.192
		c-2.446-2.242-4.398-4.969-5.79-8.113c-1.41-3.157-2.121-6.723-2.121-10.59v-46.347h17.34v45.871
		C312.711,269.523,313.535,272.035,315.238,273.82z" style="fill: rgb(75, 75, 75);"></path>
	<path class="st0" d="M120.66,67.988v0.161h2.914h46.859h2.91v-2.914V46.07v-2.914h-2.91h-9.031c-2.23,0-4.039-1.808-4.039-4.039
		V2.91V0h-2.914h-14.914h-2.914v2.91v36.206c0,2.231-1.808,4.039-4.035,4.039h-9.011h-2.914v2.914v19.164v2.746V67.988
		L120.66,67.988z" style="fill: rgb(75, 75, 75);"></path>
	<path class="st0" d="M243.098,68.149h2.914v-2.914V46.07v-2.914h-2.914h-9c-2.23,0-4.035-1.808-4.035-4.039V2.91V0h-2.914H212.23
		h-2.914v2.91v36.206c0,2.231-1.805,4.039-4.035,4.039h-9.043h-2.914v2.914v19.164v2.914h2.914H243.098z" style="fill: rgb(75, 75, 75);"></path>
	<path class="st0" d="M265.992,67.988v0.161h2.91h46.859h2.914v-2.914V46.07v-2.914h-2.914h-9.027c-2.226,0-4.035-1.808-4.035-4.039
		V2.91V0h-2.914h-14.914h-2.914v2.91v36.206c0,2.231-1.808,4.039-4.039,4.039h-9.015h-2.91v2.914v19.164v2.746V67.988
		L265.992,67.988z" style="fill: rgb(75, 75, 75);"></path>
	<path class="st0" d="M388.426,68.149h2.914v-2.914V46.07v-2.914h-2.914h-9.05c-2.23,0-4.039-1.808-4.039-4.039V2.91V0h-2.91
		h-14.859h-2.914v2.91v36.206c0,2.231-1.808,4.039-4.035,4.039h-9.046h-2.914v2.914v19.164v2.914h2.914H388.426z" style="fill: rgb(75, 75, 75);"></path>
	<path class="st0" d="M341.57,443.848h-2.914v2.914v19.168v2.914h2.914h9.031c2.226,0,4.035,1.805,4.035,4.035v36.206V512h2.914
		h14.918h2.91v-2.914v-36.206c0-2.23,1.808-4.035,4.038-4.035h9.008h2.738h0.016l0,0h0.16v-2.914v-19.168v-2.914h-2.914H341.57z" style="fill: rgb(75, 75, 75);"></path>
	<path class="st0" d="M268.902,443.848h-2.91v2.914v19.168v2.746v0.007l0,0v0.161h2.91h9c2.23,0,4.039,1.805,4.039,4.035v36.206V512
		h2.91h14.918h2.914v-2.914v-36.206c0-2.23,1.809-4.035,4.035-4.035h9.043h2.738h0.016l0,0h0.16v-2.914v-19.168v-2.914h-2.914
		H268.902z" style="fill: rgb(75, 75, 75);"></path>
	<path class="st0" d="M196.238,443.848h-2.914v2.914v19.168v2.914h2.914h9.027c2.23,0,4.035,1.805,4.035,4.035v36.206V512h2.914
		h14.918h2.914v-2.914v-36.206c0-2.23,1.804-4.035,4.035-4.035h9.015h2.738h0.015l0,0h0.161v-2.914v-19.168v-2.914h-2.914H196.238z" style="fill: rgb(75, 75, 75);"></path>
	<path class="st0" d="M123.574,443.848h-2.914v2.914v19.168v2.746v0.007l0,0v0.161h2.914h9.05c2.23,0,4.039,1.805,4.039,4.035
		v36.206v2.746v0.008l0,0V512h2.914h14.855h2.914v-2.914v-36.206c0-2.23,1.808-4.035,4.035-4.035h9.05h2.734h0.019l0,0h0.157v-2.914
		v-19.168v-2.914h-2.91H123.574z" style="fill: rgb(75, 75, 75);"></path>
	<path class="st0" d="M509.086,136.617h-36.202c-2.231,0-4.039-1.804-4.039-4.034v-9.008v-2.914h-2.91h-19.172h-2.91v2.914v46.859
		v2.914h2.91h19.172h2.91v-2.914v-9.035c0-2.23,1.808-4.035,4.039-4.035h36.202h2.746h0.008l0,0H512v-2.914v-14.918v-2.914H509.086z
		" style="fill: rgb(75, 75, 75);"></path>
	<path class="st0" d="M472.883,209.317c-2.231,0-4.039-1.809-4.039-4.039v-9.039v-2.914h-2.91h-19.172h-2.742h-0.011l0,0h-0.157
		v2.914v46.855v2.914h2.91h19.172h2.91v-2.914v-8.996c0-2.23,1.808-4.039,4.039-4.039h36.202H512v-2.914V212.23v-2.914h-2.914
		H472.883z" style="fill: rgb(75, 75, 75);"></path>
	<path class="st0" d="M472.883,281.957c-2.231,0-4.039-1.808-4.039-4.039v-9.015v-2.914h-2.91h-19.172h-2.91v2.914v46.859v2.914
		h2.91h19.172h2.91v-2.914v-9.027c0-2.23,1.808-4.039,4.039-4.039h36.202h2.746l0.008,0.004v-0.004H512v-2.91v-14.914v-2.914h-2.914
		H472.883z" style="fill: rgb(75, 75, 75);"></path>
	<path class="st0" d="M472.883,354.652c-2.231,0-4.039-1.804-4.039-4.035v-9.046v-2.914h-2.91h-19.172h-2.91v2.914v46.855v2.91h2.91
		h19.172h2.91v-2.91v-9.05c0-2.23,1.808-4.039,4.039-4.039h36.202H512v-2.914v-14.855v-2.914h-2.914H472.883z" style="fill: rgb(75, 75, 75);"></path>
	<path class="st0" d="M46.07,338.656h-2.914v2.914v9.027c0,2.23-1.808,4.039-4.039,4.039H2.914H0v2.914v14.914v2.914h2.914h36.202
		c2.231,0,4.039,1.808,4.039,4.038v9.008v2.91h2.914h19.168h2.914v-2.91V341.57v-2.914h-2.914H46.07z" style="fill: rgb(75, 75, 75);"></path>
	<path class="st0" d="M46.07,265.988h-2.914v2.914v9c0,2.23-1.808,4.035-4.039,4.035H2.914H0v2.914v14.918v2.914h2.914h36.202
		c2.231,0,4.039,1.805,4.039,4.035v9.043v2.914h2.914h19.168h2.914v-2.914v-46.859v-2.914h-2.914H46.07z" style="fill: rgb(75, 75, 75);"></path>
	<path class="st0" d="M46.07,193.324h-2.746h-0.007l0,0h-0.161v2.914v9.027c0,2.23-1.808,4.035-4.039,4.035H2.914H0v2.914v14.914
		v2.914h2.914h36.202c2.231,0,4.039,1.805,4.039,4.035v9.015v2.914h2.914h19.168h2.914v-2.914v-46.855v-2.914h-2.914H46.07z" style="fill: rgb(75, 75, 75);"></path>
	<path class="st0" d="M46.07,120.66h-2.914v2.914v9.05c0,2.23-1.808,4.035-4.039,4.035H2.914H0v2.914v14.859v2.914h2.914h36.202
		c2.231,0,4.039,1.804,4.039,4.038v9.047v2.914h2.914h19.168h2.914v-2.914v-46.859v-2.914h-2.914H46.07z" style="fill: rgb(75, 75, 75);"></path>
</g>
</svg>
