<!--?xml version="1.0" encoding="utf-8"?-->
<!-- Generator: Adobe Illustrator 18.0.0, SVG Export Plug-In . SVG Version: 6.00 Build 0)  -->

<svg version="1.1" id="_x31_0" xmlns="http://www.w3.org/2000/svg" xmlns:xlink="http://www.w3.org/1999/xlink" x="0px" y="0px" viewBox="0 0 512 512" style="width: 256px; height: 256px; opacity: 1;" xml:space="preserve">
<style type="text/css">
	.st0{fill:#374149;}
</style>
<g>
	<path class="st0" d="M406.612,264.121c-6.772-6.791-6.757-17.791,0.035-24.563l93.769-93.492
		c15.414-15.371,15.45-40.329,0.082-55.746l-77.929-78.152c-15.371-15.414-40.329-15.453-55.743-0.082l-93.765,93.495
		c-6.795,6.773-17.791,6.757-24.563-0.035l-93.495-93.769c-15.371-15.414-40.329-15.449-55.743-0.078L21.107,89.624
		c-15.414,15.371-15.453,40.329-0.082,55.743l93.495,93.769c6.773,6.792,6.757,17.787-0.035,24.559L5.104,372.758
		c-6.792,6.772-6.807,17.771-0.035,24.563L114.13,506.699c6.773,6.796,17.772,6.811,24.564,0.039l109.378-109.066
		c6.792-6.772,17.791-6.757,24.563,0.039l93.496,93.765c15.371,15.414,40.329,15.453,55.742,0.082l78.152-77.929
		c15.414-15.371,15.453-40.325,0.082-55.743L406.612,264.121z"></path>
</g>
</svg>
