<!--?xml version="1.0" encoding="utf-8"?-->
<!-- Generator: Adobe Illustrator 18.1.1, SVG Export Plug-In . SVG Version: 6.00 Build 0)  -->

<svg version="1.1" id="_x31_0" xmlns="http://www.w3.org/2000/svg" xmlns:xlink="http://www.w3.org/1999/xlink" x="0px" y="0px" viewBox="0 0 512 512" style="enable-background:new 0 0 512 512;" xml:space="preserve">
<style type="text/css">
	.st0{fill:#374149;}
</style>
<g>
	<path class="st0" d="M499.017,80.909c-0.015-0.027-0.034-0.058-0.046-0.086c-4.094-7.653-9.242-14.864-15.262-21.575
		c-1.332-1.492-2.598-3.023-4.016-4.454l-0.004,0.004c-0.015-0.019-0.031-0.039-0.05-0.058l0,0L233.985,300.393
		c-2.734,2.734-7.165,2.734-9.899,0l-67.725-67.725c-35.251-35.251-88.374-41.693-130.192-19.383
		c-0.027,0.015-0.05,0.035-0.082,0.05c-7.786,4.161-15.122,9.418-21.934,15.578c-1.364,1.231-2.782,2.391-4.094,3.696l0.004,0.004
		c-0.019,0.019-0.043,0.035-0.062,0.054l221.457,221.453c4.184,4.184,10.973,4.184,15.157,0l243.024-243.024
		C514.889,175.846,521.33,122.724,499.017,80.909z"></path>
</g>
</svg>
