<!--?xml version="1.0" encoding="utf-8"?-->
<!-- Generator: Adobe Illustrator 22.1.0, SVG Export Plug-In . SVG Version: 6.00 Build 0)  -->
<svg version="1.1" id="_x31_0" xmlns="http://www.w3.org/2000/svg" xmlns:xlink="http://www.w3.org/1999/xlink" x="0px" y="0px" viewBox="0 0 512 512" style="width: 256px; height: 256px; opacity: 1;" xml:space="preserve">
<style type="text/css">
	.st0{fill:#374149;}
</style>
<g>
	<path class="st0" d="M231.805,193.946c2.199-0.863,4.457-1.606,6.758-2.227c4.852-1.312,9.93-2.098,15.149-2.269
		c0.766-0.032,1.527-0.043,2.289-0.043c1.641,0,3.266,0.062,4.875,0.183c2.402,0.164,4.762,0.469,7.082,0.887
		c5.657-38.633,24.66-68.961,56.52-90.207c3.805-2.535,5.949-6.786,5.726-11.363c-0.215-4.602-2.766-8.641-6.817-10.817
		c-18.488-9.93-39.058-15.172-59.5-15.172h-2.89l-2.074,2.004c-0.722,0.715-17.969,17.657-28.836,47.996
		c-7.152,19.981-12.39,48.754-4.882,84.028C227.34,195.828,229.539,194.82,231.805,193.946z"></path>
	<path class="st0" d="M280.195,318.054c-2.195,0.863-4.445,1.61-6.746,2.227c-4.852,1.312-9.93,2.098-15.161,2.269
		c-0.762,0.032-1.523,0.043-2.289,0.043c-1.637,0-3.266-0.062-4.871-0.183c-2.402-0.164-4.762-0.469-7.082-0.887
		c-5.668,38.633-24.653,68.954-56.508,90.195c-3.817,2.547-5.965,6.79-5.742,11.367c0.215,4.598,2.77,8.637,6.82,10.817
		c18.485,9.93,39.059,15.18,59.5,15.18h2.887l2.078-2.016c0.722-0.703,17.965-17.652,28.832-47.981
		c7.152-19.996,12.394-48.758,4.886-84.031C284.664,316.172,282.465,317.18,280.195,318.054z"></path>
	<path class="st0" d="M192.461,236.008c0.734-2.321,1.578-4.578,2.555-6.778c0.945-2.176,2.023-4.305,3.202-6.359
		c2.555-4.457,5.618-8.586,9.098-12.309c1.636-1.75,3.366-3.41,5.179-4.977c1.789-1.558,3.672-3.011,5.637-4.367
		c-23.32-31.316-31.34-66.191-23.828-103.746c0.894-4.489-0.594-9.016-3.981-12.098c-3.406-3.094-8.066-4.153-12.473-2.821
		c-20.086,6.047-38.347,16.883-52.804,31.34L123,115.938l-0.039,2.879c-0.011,1.019-0.226,25.191,13.539,54.332
		C145.578,192.328,162.203,216.383,192.461,236.008z"></path>
	<path class="st0" d="M319.539,275.984c-0.719,2.321-1.574,4.578-2.543,6.774c-0.957,2.188-2.035,4.317-3.214,6.359
		c-2.555,4.458-5.618,8.59-9.094,12.321c-1.64,1.75-3.367,3.41-5.179,4.977c-1.793,1.546-3.672,3.011-5.637,4.355
		c23.32,31.328,31.336,66.207,23.828,103.758c-0.894,4.489,0.59,9.004,3.988,12.09c2.43,2.219,5.516,3.387,8.688,3.387
		c1.254,0,2.523-0.184,3.777-0.558c20.094-6.055,38.348-16.891,52.805-31.348l2.043-2.035l0.043-2.89
		c0.019-1.016,0.222-25.191-13.543-54.321C366.434,319.664,349.801,295.61,319.539,275.984z"></path>
	<path class="st0" d="M162.844,290.461c10.531,0,21.926-1.078,34.106-3.672c-1.13-2.137-2.13-4.336-3.004-6.594
		c-0.863-2.207-1.606-4.457-2.227-6.766c-1.324-4.855-2.098-9.93-2.269-15.148c-0.032-0.754-0.039-1.52-0.039-2.282
		c0-1.637,0.058-3.266,0.183-4.875c0.16-2.398,0.465-4.762,0.883-7.078c-38.633-5.668-68.954-24.664-90.195-56.52
		c-2.543-3.809-6.79-5.953-11.367-5.73c-4.598,0.215-8.649,2.77-10.825,6.817c-9.918,18.48-15.168,39.062-15.168,59.5v2.89
		l2.004,2.066c0.711,0.734,17.66,17.977,47.992,28.844C126,286.594,142.851,290.461,162.844,290.461z"></path>
	<path class="st0" d="M315.054,225.191c1.118,2.137,2.126,4.336,3,6.606c0.867,2.195,1.61,4.454,2.23,6.766
		c1.309,4.852,2.094,9.93,2.266,15.149c0.032,0.762,0.043,1.527,0.043,2.289c0,1.637-0.062,3.266-0.183,4.875
		c-0.164,2.398-0.469,4.762-0.887,7.078c38.633,5.668,68.954,24.657,90.199,56.512c2.422,3.633,6.398,5.746,10.734,5.746
		c0.211,0,0.426,0,0.641-0.008c4.586-0.226,8.637-2.77,10.817-6.828c9.93-18.477,15.168-39.047,15.168-59.5v-2.879l-2.004-2.074
		c-0.711-0.734-17.653-17.98-47.993-28.836C379.102,222.934,350.34,217.683,315.054,225.191z"></path>
	<path class="st0" d="M115.938,388.992l2.89,0.051h0.317c3.121,0,26.332-0.458,54.004-13.543
		c19.191-9.078,43.234-25.711,62.859-55.961c-2.321-0.73-4.578-1.578-6.778-2.543c-2.176-0.965-4.301-2.035-6.355-3.214
		c-4.458-2.563-8.59-5.618-12.313-9.098c-1.75-1.636-3.41-3.366-4.977-5.175c-1.554-1.801-3.011-3.684-4.363-5.637
		c-31.316,23.316-66.187,31.324-103.75,23.828c-4.489-0.906-9.016,0.59-12.098,3.977c-3.094,3.41-4.141,8.07-2.821,12.473
		c6.047,20.086,16.891,38.351,31.352,52.808L115.938,388.992z"></path>
	<path class="st0" d="M275.984,192.461c2.321,0.722,4.586,1.578,6.786,2.543c2.18,0.957,4.305,2.035,6.359,3.214
		c4.457,2.555,8.586,5.618,12.313,9.098c1.75,1.636,3.406,3.366,4.973,5.175c1.546,1.793,3.011,3.664,4.355,5.629
		c31.328-23.32,66.207-31.328,103.762-23.82c4.485,0.898,9.012-0.59,12.094-3.988c3.094-3.398,4.153-8.066,2.821-12.473
		c-6.043-20.086-16.879-38.336-31.336-52.797L396.062,123l-2.879-0.039c-1.019-0.023-25.202-0.234-54.332,13.539
		C319.672,145.566,295.621,162.203,275.984,192.461z"></path>
	<polygon class="st0" points="389.137,474.707 389.141,474.703 389.137,474.707 	"></polygon>
	<path class="st0" d="M37.293,122.867l0.004-0.012v0.004C37.297,122.859,37.293,122.863,37.293,122.867z"></path>
	<path class="st0" d="M122.867,37.289c-0.004,0-0.004,0.004-0.008,0.004L122.867,37.289L122.867,37.289z"></path>
	<path class="st0" d="M473.797,390.586c0.293-0.484,0.61-0.965,0.914-1.453c6.511-10.683,12.242-21.855,17.156-33.484
		C505.226,324.086,512,290.512,512,256c0-34.523-6.774-68.086-20.133-99.66c-4.914-11.618-10.645-22.801-17.156-33.485
		c-0.294-0.496-0.622-0.965-0.914-1.453l14.691-14.691l8.223-71.18c1.339-11.703-8.539-21.594-20.25-20.238l-71.172,8.219
		l-14.691,14.695c-0.488-0.297-0.977-0.622-1.465-0.918C378.45,30.77,367.27,25.05,355.672,20.125h-0.012
		C324.09,6.778,290.523-0.008,256,0c-34.512-0.008-68.086,6.778-99.656,20.125c-11.602,4.926-22.794,10.645-33.477,17.164
		c-0.488,0.297-0.965,0.622-1.453,0.918l-14.703-14.695l-71.18-8.219c-11.703-1.355-21.59,8.535-20.238,20.238l8.223,71.18
		l14.699,14.691c-0.305,0.488-0.622,0.965-0.914,1.453c-6.531,10.684-12.25,21.867-17.176,33.485C6.778,187.914,0,221.477,0,256
		c0,34.512,6.778,68.086,20.125,99.649c4.914,11.621,10.645,22.801,17.164,33.484c0.305,0.488,0.622,0.969,0.926,1.453
		l-14.699,14.703l-8.223,71.184c-1.351,11.699,8.535,21.59,20.238,20.234l71.18-8.219l14.703-14.703
		c0.488,0.305,0.965,0.622,1.453,0.926v-0.012c10.683,6.523,21.867,12.242,33.477,17.156C187.914,505.222,221.488,512,256,512
		c34.523,0,68.09-6.778,99.66-20.145c11.61-4.914,22.801-10.633,33.473-17.156h0.012c0.5-0.293,0.965-0.61,1.453-0.914
		l14.691,14.703l71.172,8.219c11.711,1.355,21.59-8.535,20.25-20.234l-8.223-71.184L473.797,390.586z M47.058,440.218
		c6.828-6.835,17.894-6.835,24.734,0c6.824,6.836,6.824,17.898,0,24.734c-6.84,6.836-17.906,6.829-24.734,0
		C40.218,458.117,40.218,447.054,47.058,440.218z M71.793,71.782c-6.84,6.828-17.906,6.828-24.734,0
		c-6.84-6.836-6.84-17.898,0-24.734c6.828-6.836,17.894-6.836,24.734,0C78.617,53.883,78.617,64.946,71.793,71.782z M42.734,256
		c0-38.234,10.05-74.07,27.652-105.102c19.047-33.566,46.958-61.477,80.512-80.512C181.922,52.785,217.754,42.734,256,42.734
		c38.246,0,74.082,10.05,105.102,27.652c33.558,19.035,61.465,46.946,80.512,80.512C459.215,181.93,469.27,217.766,469.27,256
		s-10.054,74.07-27.656,105.094c-9.524,16.786-21.266,32.16-34.817,45.711c-13.55,13.554-28.914,25.285-45.695,34.809
		c-31.019,17.602-66.855,27.652-105.102,27.652c-38.246,0-74.078-10.05-105.09-27.652c-33.566-19.035-61.477-46.946-80.524-80.52
		C52.785,330.07,42.734,294.234,42.734,256z M440.211,440.218c6.828-6.835,17.894-6.835,24.734,0c6.824,6.836,6.824,17.898,0,24.734
		c-6.84,6.829-17.906,6.836-24.734,0C433.371,458.117,433.371,447.054,440.211,440.218z M440.211,71.782
		c-6.84-6.836-6.84-17.898,0-24.734c6.828-6.836,17.894-6.836,24.734,0c6.824,6.836,6.824,17.898,0,24.734
		C458.106,78.61,447.039,78.61,440.211,71.782z"></path>
	<path class="st0" d="M215.254,245.797c-0.214,0.832-0.398,1.687-0.562,2.543c-0.274,1.504-0.465,3.031-0.578,4.586
		c-0.07,1.02-0.114,2.047-0.114,3.074h19.282h5.015h2.492h4.508h1.687h1.192h2.289h0.398h0.191h0.031h1.18h0.359h6.754h0.355h1.18
		c0,0.012-0.008,0.019-0.02,0.031c0.012-0.012,0.031-0.019,0.043-0.031h0.211h0.386h2.289h1.203h1.676h4.508h2.484h5.055H298
		c0-1.375-0.058-2.726-0.191-4.058c-0.223-2.321-0.633-4.578-1.223-6.766c-0.609-2.321-1.414-4.559-2.41-6.695
		c-0.629-1.406-1.356-2.77-2.149-4.082c-0.445-0.742-0.914-1.473-1.414-2.187c-0.863-1.27-1.809-2.493-2.817-3.661
		c-1.558-1.8-3.266-3.472-5.11-4.976c-1.77-1.465-3.652-2.778-5.644-3.926c-2.035-1.192-4.184-2.199-6.422-3.035
		c-1.434-0.528-2.91-0.985-4.414-1.363c-0.836-0.211-1.691-0.395-2.543-0.559c-1.508-0.274-3.035-0.469-4.59-0.578
		c-1.02-0.074-2.047-0.114-3.074-0.114c-1.371,0-2.726,0.062-4.058,0.195c-2.321,0.222-4.578,0.629-6.766,1.219
		c-2.309,0.609-4.547,1.414-6.684,2.402c-1.406,0.64-2.77,1.363-4.094,2.156c-0.742,0.449-1.473,0.914-2.183,1.414
		c-1.274,0.864-2.485,1.813-3.653,2.817c-1.805,1.547-3.473,3.258-4.988,5.098c-1.454,1.774-2.778,3.664-3.926,5.66
		c-1.192,2.031-2.199,4.18-3.032,6.418C216.086,242.813,215.629,244.289,215.254,245.797z"></path>
</g>
</svg>
