<!--?xml version="1.0" encoding="utf-8"?-->
<!-- Generator: Adobe Illustrator 18.1.1, SVG Export Plug-In . SVG Version: 6.00 Build 0)  -->

<svg version="1.1" id="_x31_0" xmlns="http://www.w3.org/2000/svg" xmlns:xlink="http://www.w3.org/1999/xlink" x="0px" y="0px" viewBox="0 0 512 512" style="width: 16px; height: 16px; opacity: 1;" xml:space="preserve">
<style type="text/css">
	.st0{fill:#374149;}
</style>
<g>
	<path class="st0" d="M342.547,0.629V0.16l0,0V0H169.441v153.863h173.106V0.629z M300.23,111.547h-88.55V42.238h88.438h0.113v69.254
		V111.547z"></path>
	<path class="st0" d="M146.746,389.34v-0.16H92.867h-30.57H8.8H8.636l0,0h-0.16v122.285v0.375l0,0V512h138.27V389.715l0.004-0.375
		H146.746z M42.195,478.285v-55.386h70.836v55.386H42.464H42.195z"></path>
	<path class="st0" d="M240.688,389.18h-53.496h-0.165l0,0h-0.16V512h138.27V389.18h-53.882H240.688z M291.422,478.274v0.011h-70.566
		h-0.274v-55.386h70.84V478.274z"></path>
	<path class="st0" d="M449.644,389.18h-30.57h-53.496h-0.164l0,0h-0.16v122.285v0.375l0,0V512h138.27V389.18H449.644z
		 M398.968,478.285v-55.386h70.84v55.386h-70.566H398.968z"></path>
	<polygon class="st0" points="58.453,351.324 58.453,351.484 96.426,351.484 96.539,351.484 96.539,351.484 96.703,351.484 
		96.703,273.793 236.562,273.793 236.832,273.793 236.832,351.484 274.8,351.484 274.918,351.484 274.918,351.484 275.078,351.484 
		275.078,273.793 415.02,273.793 415.289,273.793 415.289,351.086 415.289,351.324 415.289,351.324 415.289,351.484 
		453.535,351.484 453.535,273.793 453.535,234.75 415.289,234.75 275.344,234.75 275.078,234.75 275.078,191.55 237.109,191.55 
		236.992,191.55 236.992,191.55 236.832,191.55 236.832,234.75 96.703,234.75 58.73,234.75 58.613,234.75 58.613,234.75 
		58.453,234.75 58.453,273.793 58.453,351.086 58.453,351.324 	"></polygon>
</g>
</svg>
