<!--?xml version="1.0" encoding="utf-8"?-->
<!-- Generator: Adobe Illustrator 18.1.1, SVG Export Plug-In . SVG Version: 6.00 Build 0)  -->

<svg version="1.1" id="_x31_0" xmlns="http://www.w3.org/2000/svg" xmlns:xlink="http://www.w3.org/1999/xlink" x="0px" y="0px" viewBox="0 0 512 512" style="width: 256px; height: 256px; opacity: 1;" xml:space="preserve">
<style type="text/css">
	.st0{fill:#374149;}
</style>
<g>
	<path class="st0" d="M382.82,180.848v-37.786C382.82,64.18,325.93,0,256.004,0c-69.926,0-126.821,64.18-126.821,143.062v37.786
		H43.496V509.82l-0.004,2.02h0.004V512h425.012V180.848H382.82z M270.789,336.324c0.969,2.086,1.554,4.387,1.554,6.832v41.394
		c0,8.985-7.355,16.34-16.343,16.34c-8.985,0-16.336-7.355-16.336-16.34v-41.394c0-2.445,0.578-4.746,1.55-6.832
		c-10.609-5.398-17.89-16.394-17.89-29.117c0-18.047,14.629-32.68,32.676-32.68c18.05,0,32.679,14.633,32.679,32.68
		C288.679,319.93,281.398,330.926,270.789,336.324z M326.175,180.778v0.07H185.828v-37.786c0-47.648,31.481-86.418,70.176-86.418
		c38.691,0,70.171,38.77,70.171,86.418V180.778z"></path>
</g>
</svg>
