<!--?xml version="1.0" encoding="utf-8"?-->
<!-- Generator: Adobe Illustrator 18.0.0, SVG Export Plug-In . SVG Version: 6.00 Build 0)  -->

<svg version="1.1" id="_x31_0" xmlns="http://www.w3.org/2000/svg" xmlns:xlink="http://www.w3.org/1999/xlink" x="0px" y="0px" viewBox="0 0 512 512" style="width: 256px; height: 256px; opacity: 1;" xml:space="preserve">
<style type="text/css">
	.st0{fill:#374149;}
</style>
<g>
	<path class="st0" d="M504.211,193.199c-0.016-0.066-0.031-0.129-0.047-0.191c-1.656-6.555-3.578-13-5.734-19.34
		c-0.11-0.328-0.207-0.656-0.32-0.985c-2.188-6.359-4.633-12.598-7.297-18.718c-0.098-0.226-0.184-0.453-0.286-0.68
		c-8.539-19.461-19.41-37.664-32.289-54.246c-13.122-16.879-28.321-32.078-45.199-45.199
		c-16.547-12.883-34.719-23.754-54.145-32.297c-0.32-0.141-0.641-0.266-0.961-0.406c-6.027-2.621-12.168-5.027-18.426-7.187
		c-0.434-0.149-0.875-0.282-1.309-0.43c-6.242-2.113-12.582-4.007-19.027-5.644c-0.168-0.043-0.34-0.078-0.508-0.122
		C298.61,2.707,277.625,0,256,0C114.637,0,0,114.641,0,256c0,21.617,2.703,42.594,7.746,62.641c0.046,0.179,0.082,0.359,0.129,0.539
		c1.633,6.437,3.527,12.77,5.641,19c0.148,0.441,0.281,0.89,0.434,1.336c2.156,6.246,4.562,12.374,7.179,18.39
		c0.141,0.332,0.274,0.668,0.418,0.996c8.542,19.426,19.414,37.594,32.293,54.137c13.117,16.878,28.32,32.078,45.199,45.199
		c16.578,12.878,34.781,23.746,54.238,32.285c0.234,0.106,0.476,0.195,0.71,0.301c6.11,2.66,12.34,5.098,18.688,7.282
		c0.336,0.117,0.672,0.218,1.007,0.332c6.329,2.148,12.758,4.066,19.301,5.722c0.086,0.023,0.176,0.039,0.262,0.062
		C213.32,509.285,234.332,512,256,512c141.438,0,256-114.562,256-256C512,234.317,509.282,213.285,504.211,193.199z M99.59,367.27
		C77.195,335.91,64,297.516,64,256c0-105.84,86.16-192,192-192c36.906,0,71.317,10.473,100.543,28.523
		c3.629,2.254,7.226,4.574,10.726,7.086L136.234,330.645L99.59,367.27z M144.89,412.386l267.508-267.507
		C434.879,176.238,448,214.558,448,256c0,105.918-86.082,192-192,192c-36.867,0-71.23-10.43-100.453-28.55
		C151.942,417.203,148.367,414.886,144.89,412.386z"></path>
</g>
</svg>
