<!--?xml version="1.0" encoding="utf-8"?-->
<!-- Generator: Adobe Illustrator 18.0.0, SVG Export Plug-In . SVG Version: 6.00 Build 0)  -->

<svg version="1.1" id="_x31_0" xmlns="http://www.w3.org/2000/svg" xmlns:xlink="http://www.w3.org/1999/xlink" x="0px" y="0px" viewBox="0 0 512 512" style="width: 256px; height: 256px; opacity: 1;" xml:space="preserve">
<style type="text/css">
	.st0{fill:#374149;}
</style>
<g>
	<path class="st0" d="M391.859,255.176c0-2.192,1.774-3.965,3.961-3.965h0.993c2.242,0,4.031-1.86,3.969-4.102
		c-2.18-77.977-66.29-140.742-144.782-140.742S113.394,169.133,111.218,247.11c-0.062,2.242,1.727,4.102,3.969,4.102h0.989
		c2.191,0,3.965,1.773,3.965,3.965v51.957c-6.578,7.379-10.672,17.718-10.672,29.176c0,21.531,14.442,39.137,32.687,40.488v9.954
		h24.875c7.859,11.699,18.438,18.882,30.086,18.882c8.352,0,16.165-3.687,22.813-10.094V277.082
		c-6.648-6.406-14.461-10.094-22.813-10.094c-11.648,0-22.226,7.184-30.086,18.883h-24.875v9.953
		c-2.109,0.157-4.172,0.527-6.164,1.102v-41.75c0-2.192,1.774-3.965,3.965-3.965c2.129,0,3.883-1.688,3.954-3.817
		c2.019-60.082,51.527-108.336,112.09-108.336c60.562,0,110.07,48.254,112.086,108.336c0.074,2.129,1.825,3.817,3.958,3.817
		c2.191,0,3.965,1.773,3.965,3.965v41.75c-1.992-0.574-4.055-0.945-6.164-1.102v-9.953h-24.879
		c-7.855-11.699-18.434-18.883-30.082-18.883c-8.352,0-16.165,3.688-22.813,10.094v118.457c6.648,6.406,14.461,10.094,22.813,10.094
		c11.648,0,22.226-7.183,30.082-18.882h24.879v-9.954c18.246-1.351,32.687-18.957,32.687-40.488
		c0-11.458-4.098-21.797-10.672-29.176V255.176z"></path>
	<path class="st0" d="M256,0C114.614,0,0,114.614,0,256c0,141.383,114.614,256,256,256c141.383,0,256-114.617,256-256
		C512,114.614,397.383,0,256,0z M256,464c-114.691,0-208-93.309-208-208S141.309,48,256,48s208,93.309,208,208S370.691,464,256,464z
		"></path>
</g>
</svg>
