<!--?xml version="1.0" encoding="utf-8"?-->
<!-- Generator: Adobe Illustrator 18.1.1, SVG Export Plug-In . SVG Version: 6.00 Build 0)  -->

<svg version="1.1" id="_x31_0" xmlns="http://www.w3.org/2000/svg" xmlns:xlink="http://www.w3.org/1999/xlink" x="0px" y="0px" viewBox="0 0 512 512" style="width: 256px; height: 256px; opacity: 1;" xml:space="preserve">
<style type="text/css">
	.st0{fill:#374149;}
</style>
<g>
	<path class="st0" d="M186.553,180.863h-0.699v-37.82c0-47.622,31.457-86.398,70.148-86.398c30.282,0,56.16,23.746,65.965,56.902
		h49.039l8.969,0.027c0-0.008-0.004-0.016-0.008-0.027h0.168C368.022,48.801,316.956,0,256.002,0
		c-69.934,0-126.793,64.18-126.793,143.043v37.82H43.928h-0.262h-0.16v328.961v2.016V512h424.988V180.863H186.553z M270.791,336.313
		c0.973,2.086,1.555,4.39,1.555,6.832v41.39c0,8.988-7.352,16.34-16.34,16.34c-8.984,0-16.336-7.352-16.336-16.34v-41.39
		c0-2.442,0.582-4.746,1.554-6.832c-10.609-5.398-17.894-16.395-17.894-29.114c0-18.047,14.629-32.68,32.676-32.68
		c18.05,0,32.68,14.633,32.68,32.68C288.686,319.918,281.404,330.914,270.791,336.313z"></path>
</g>
</svg>
