<?xml version="1.0" encoding="utf-8"?>
<!-- 01micko GPLv3.0  -->

<svg version="1.1" id="_x31_0" xmlns="http://www.w3.org/2000/svg" xmlns:xlink="http://www.w3.org/1999/xlink" x="0px" y="0px" viewBox="0 0 512 512" style="width: 256px; height: 256px; opacity: 1;" xml:space="preserve">
<style type="text/css">
	.st1{fill:#374149;}
</style>
<g>
	<path class="st1" d="m 35 440 442 0 a 6 6 0 0 0 6 -6 l 0 -24 a 6 6 0 0 0 -6 -6 l -442 0 a 6 6 0 0 0 -6 6 l 0 24 a 6 6 0 0 0 6 6 z 
						 m 0 -64 126 0 a 32 32 0 0 0 32 -32 l 0 -40 a 32 32 0 0 0 -32 -32 l -88 0 a 6 6 0 0 1 -6 -6 l 0 -24 a 6 6 0 0 1 6 -6
						 l 114 0  a 6 6 0 0 0 6 -6 l 0 -24 a 6 6 0 0 0 -6 -6 l -126 0 a 32 32  0 0 0 -32 32 l 0 40 a 32 32 0 0 0 32 32 l 88 0
						 a 6 6 0 0 1 6 6 l 0 24 a 6 6 0 0 1 -6 6 l -114 0 a 6 6 0 0 0 -6 6 l 0 24 a 6 6 0 0 0 6 6 z
						 m 172 0 24 0 a 6 6 0 0 0 6 -6 l 0 -128 a 6 6 0 0 1 6 -6 l 32 0 a 6 6 0 0 0 6 -6 l 0 -24 a 6 6 0 0 0 -6 -6 
						 l -32 0 a 6 6 0 0 1 -6 -6 l 0 -24 a 6 6 0 0 1 6 -6 l 64 0 a 6 6 0 0 0 6 -6 l 0 -24 a 6 6 0 0 0 -6 -6
						 l -76 0 a 32 32 0 0 0 -32 32 l 0 210 a 6 6 0 0 0 6 6 z
						 m 116 0 48 0 a 16 16 0 0 0 16 -16 a 16 16 0 0 0 16 16 l 48 0 a 32 32 0 0 0 32 -32 l 0 -138 a 6 6 0 0 0 -6 -6 l -24 0
						 a 6 6 0 0 0 -6 6 l 0 128 a 6 6 0 0 1 -6 6 l -20 0 a 6 6 0 0 1 -6 -6 l 0 -12 a 6 6 0 0 0 -6 -6 l -52 0
						 a 6 6 0 0 0 -6 6 l 0 12 a 6 6 0 0 1 -6 6 l -20 0 a 6 6 0 0 1 -6 -6 l 0 -128 a 6 6 0 0 0 -6 -6 
						 l -20 0 a 6 6 0 0 0 -6 6 l0 138  a 32 32 0 0 0 32 32 z"></path>
</g>
</svg>
